<svg width="30" height="30" viewBox="0 0 30 30" fill="none" xmlns="http://www.w3.org/2000/svg">
<circle cx="15" cy="15" r="14" fill="black"/>
<path d="M25.6066 4.39336C22.7735 1.56029 19.0066 0 15 0C10.9934 0 7.22654 1.56029 4.39336 4.39336C1.56029 7.22654 0 10.9934 0 15C0 19.0066 1.56029 22.7735 4.39336 25.6066C7.22654 28.4397 10.9934 30 15 30C19.0066 30 22.7735 28.4397 25.6066 25.6066C28.4397 22.7735 30 19.0066 30 15C30 10.9934 28.4397 7.22654 25.6066 4.39336ZM15 28.2422C7.69822 28.2422 1.75781 22.3018 1.75781 15C1.75781 7.69822 7.69822 1.75781 15 1.75781C22.3018 1.75781 28.2422 7.69822 28.2422 15C28.2422 22.3018 22.3018 28.2422 15 28.2422Z" fill="black"/>
<path d="M22.1777 7.08984H10.459C9.97359 7.08984 9.58008 7.48336 9.58008 7.96875C9.58008 8.45414 9.97359 8.84766 10.459 8.84766H22.1777C22.6631 8.84766 23.0566 8.45414 23.0566 7.96875C23.0566 7.48336 22.6631 7.08984 22.1777 7.08984Z" fill="white"/>
<path d="M7.5293 8.84766C8.0147 8.84766 8.4082 8.45416 8.4082 7.96875C8.4082 7.48334 8.0147 7.08984 7.5293 7.08984C7.04389 7.08984 6.65039 7.48334 6.65039 7.96875C6.65039 8.45416 7.04389 8.84766 7.5293 8.84766Z" fill="white"/>
<path d="M22.1777 10.6055H10.459C9.97359 10.6055 9.58008 10.999 9.58008 11.4844C9.58008 11.9698 9.97359 12.3633 10.459 12.3633H22.1777C22.6631 12.3633 23.0566 11.9698 23.0566 11.4844C23.0566 10.999 22.6631 10.6055 22.1777 10.6055Z" fill="white"/>
<path d="M7.5293 12.3633C8.0147 12.3633 8.4082 11.9698 8.4082 11.4844C8.4082 10.999 8.0147 10.6055 7.5293 10.6055C7.04389 10.6055 6.65039 10.999 6.65039 11.4844C6.65039 11.9698 7.04389 12.3633 7.5293 12.3633Z" fill="white"/>
<path d="M22.1777 14.1211H10.459C9.97359 14.1211 9.58008 14.5146 9.58008 15C9.58008 15.4854 9.97359 15.8789 10.459 15.8789H22.1777C22.6631 15.8789 23.0566 15.4854 23.0566 15C23.0566 14.5146 22.6631 14.1211 22.1777 14.1211Z" fill="white"/>
<path d="M7.5293 15.8789C8.0147 15.8789 8.4082 15.4854 8.4082 15C8.4082 14.5146 8.0147 14.1211 7.5293 14.1211C7.04389 14.1211 6.65039 14.5146 6.65039 15C6.65039 15.4854 7.04389 15.8789 7.5293 15.8789Z" fill="white"/>
<path d="M22.1777 17.6367H10.459C9.97359 17.6367 9.58008 18.0302 9.58008 18.5156C9.58008 19.001 9.97359 19.3945 10.459 19.3945H22.1777C22.6631 19.3945 23.0566 19.001 23.0566 18.5156C23.0566 18.0302 22.6631 17.6367 22.1777 17.6367Z" fill="white"/>
<path d="M7.5293 19.3945C8.0147 19.3945 8.4082 19.001 8.4082 18.5156C8.4082 18.0302 8.0147 17.6367 7.5293 17.6367C7.04389 17.6367 6.65039 18.0302 6.65039 18.5156C6.65039 19.001 7.04389 19.3945 7.5293 19.3945Z" fill="white"/>
<path d="M22.1777 21.1523H10.459C9.97359 21.1523 9.58008 21.5459 9.58008 22.0312C9.58008 22.5166 9.97359 22.9102 10.459 22.9102H22.1777C22.6631 22.9102 23.0566 22.5166 23.0566 22.0312C23.0566 21.5459 22.6631 21.1523 22.1777 21.1523Z" fill="white"/>
<path d="M7.5293 22.9102C8.0147 22.9102 8.4082 22.5167 8.4082 22.0312C8.4082 21.5458 8.0147 21.1523 7.5293 21.1523C7.04389 21.1523 6.65039 21.5458 6.65039 22.0312C6.65039 22.5167 7.04389 22.9102 7.5293 22.9102Z" fill="white"/>
</svg>
