<svg width="55" height="55" viewBox="0 0 55 55" fill="none" xmlns="http://www.w3.org/2000/svg">
<path d="M27.5002 0.114502C12.3124 0.114502 0 12.4269 0 27.6147C0 41.2363 9.91435 52.5173 22.9137 54.7018V33.3519H16.2798V25.669H22.9137V20.0039C22.9137 13.4307 26.9284 9.84875 32.7929 9.84875C35.6017 9.84875 38.0155 10.058 38.7162 10.1502V17.0209L34.6487 17.0229C31.4601 17.0229 30.8453 18.5378 30.8453 20.7617V25.6651H38.4538L37.4614 33.348H30.8453V54.8855C44.4515 53.2295 55 41.6611 55 27.6068C55 12.4269 42.6876 0.114502 27.5002 0.114502Z" fill="#3578E5"/>
</svg>
