<svg width="50" height="47" viewBox="0 0 50 47" fill="none" xmlns="http://www.w3.org/2000/svg">
<path d="M24.388 8.47178L24.85 9.58754L25.312 8.47178C27.2602 3.76644 31.6993 0.501019 36.84 0.501019C43.7258 0.501019 48.7819 6.51356 49.4209 13.8449L49.4231 13.87L49.4275 13.8932L49.4275 13.8936L49.4276 13.894L49.4277 13.8943L49.4277 13.8944L49.4277 13.8946L49.4295 13.905C49.4313 13.9156 49.4341 13.9334 49.4376 13.9582C49.4446 14.0078 49.4544 14.0856 49.4641 14.1909C49.4836 14.4015 49.5027 14.7222 49.4984 15.1471C49.4899 15.9967 49.388 17.2646 49.0079 18.905C47.9743 23.367 45.5431 27.3374 42.2593 30.3709C42.2588 30.3713 42.2583 30.3718 42.2578 30.3723L24.8529 46.1963L7.74149 30.3715L7.74118 30.3712C4.45666 27.3387 2.0249 23.3667 0.991104 18.904L0.991099 18.904C0.611024 17.2636 0.509123 15.9957 0.500602 15.1461C0.49634 14.7211 0.515434 14.4005 0.534871 14.1899C0.54459 14.0846 0.554397 14.0068 0.561419 13.9572C0.56493 13.9323 0.567745 13.9146 0.569505 13.904L0.571259 13.8936L0.571308 13.8934L0.571321 13.8933L0.571376 13.893L0.57146 13.8925L0.571532 13.8921L0.575934 13.8689L0.578114 13.8439C1.21707 6.51254 6.27322 0.5 13.159 0.5C18.2873 0.5 22.4342 3.75285 24.388 8.47178Z" fill="white" stroke="black"/>
</svg>
